<svg xmlns="http://www.w3.org/2000/svg" width="400" height="400" viewBox="0 0 400 400">
  <defs>
    <radialGradient id="node" cx="50%" cy="50%" r="50%">
      <stop offset="0%" stop-color="#8f5fd0"/>
      <stop offset="100%" stop-color="#6f5fb6"/>
    </radialGradient>
    <radialGradient id="nodeGold" cx="50%" cy="50%" r="50%">
      <stop offset="0%" stop-color="#ffe07a"/>
      <stop offset="100%" stop-color="#f0b429"/>
    </radialGradient>
  </defs>

  <!-- triangle face fills (light purple) -->
  <g>
    <polygon points="135,125 151,151 58,119" fill="#7c75b8" opacity="0.064"/>
    <polygon points="270,125 261,143 252,58" fill="#7c75b8" opacity="0.059"/>
    <polygon points="200,300 214,347 143,261" fill="#7c75b8" opacity="0.06"/>
    <polygon points="219,245 191,191 245,219" fill="#7c75b8" opacity="0.067"/>
  </g>

  <!-- purple connecting lines (Delaunay: no crossings) -->
  <g stroke="#7c75b8" stroke-width="1" stroke-opacity="0.091" fill="none">
    <path d="M325 54 L252 58"/>
    <path d="M328 280 L347 214"/>
    <path d="M300 0 L252 58"/>
    <path d="M325 54 L300 0"/>
    <path d="M400 300 L347 214"/>
    <path d="M328 280 L400 300"/>
    <path d="M280 328 L324 324"/>
    <path d="M324 324 L400 300"/>
    <path d="M58 252 L54 325"/>
    <path d="M214 347 L268 268"/>
    <path d="M0 100 L58 119"/>
    <path d="M219 245 L245 219"/>
    <path d="M347 214 L261 143"/>
    <path d="M143 261 L87 212"/>
    <path d="M191 191 L190 150"/>
    <path d="M0 300 L54 325"/>
    <path d="M58 252 L0 300"/>
    <path d="M261 143 L190 150"/>
    <path d="M54 325 L100 400"/>
    <path d="M268 268 L245 219"/>
    <path d="M151 151 L190 150"/>
    <path d="M142 332 L143 261"/>
    <path d="M0 200 L87 212"/>
    <path d="M214 347 L280 328"/>
    <path d="M214 347 L219 245"/>
    <path d="M214 347 L143 261"/>
    <path d="M332 142 L400 100"/>
    <path d="M347 214 L332 142"/>
    <path d="M400 100 L325 54"/>
    <path d="M212 87 L119 58"/>
    <path d="M191 191 L245 219"/>
    <path d="M143 261 L150 190"/>
    <path d="M150 190 L191 191"/>
    <path d="M143 261 L191 191"/>
    <path d="M135 125 L151 151"/>
    <path d="M151 151 L58 119"/>
    <path d="M58 119 L135 125"/>
    <path d="M261 143 L252 58"/>
    <path d="M252 58 L270 125"/>
    <path d="M200 300 L214 347"/>
    <path d="M143 261 L200 300"/>
    <path d="M119 58 L212 87"/>
    <path d="M212 87 L252 58"/>
    <path d="M190 150 L212 87"/>
    <path d="M135 125 L190 150"/>
    <path d="M87 212 L58 252"/>
    <path d="M87 212 L143 261"/>
    <path d="M245 219 L347 214"/>
    <path d="M268 268 L328 280"/>
    <path d="M268 268 L324 324"/>
    <path d="M280 328 L200 400"/>
    <path d="M142 332 L200 400"/>
    <path d="M142 332 L214 347"/>
    <path d="M332 142 L270 125"/>
    <path d="M325 54 L252 58"/>
    <path d="M200 0 L252 58"/>
    <path d="M200 300 L268 268"/>
    <path d="M200 300 L280 328"/>
    <path d="M0 200 L87 212"/>
    <path d="M0 300 L58 252"/>
  </g>

  <!-- gold accent lines -->
  <g stroke="#e8b53a" stroke-width="1" stroke-opacity="0.109" fill="none">
    <path d="M119 58 L54 54"/>
    <path d="M100 0 L54 54"/>
    <path d="M119 58 L100 0"/>
    <path d="M100 400 L142 332"/>
    <path d="M200 0 L119 58"/>
    <path d="M54 54 L58 119"/>
    <path d="M191 191 L219 245"/>
    <path d="M191 191 L261 143"/>
    <path d="M270 125 L261 143"/>
    <path d="M54 54 L100 0"/>
    <path d="M0 0 L54 54"/>
    <path d="M119 58 L135 125"/>
    <path d="M270 125 L252 58"/>
    <path d="M261 143 L332 142"/>
    <path d="M219 245 L268 268"/>
    <path d="M191 191 L190 150"/>
    <path d="M200 300 L219 245"/>
    <path d="M142 332 L100 400"/>
  </g>

  <!-- nodes (small and faint) -->
  <g>
    <circle cx="54" cy="54" r="3" fill="url(#nodeGold)" opacity="0.227"/>
    <circle cx="58" cy="119" r="3" fill="url(#nodeGold)" opacity="0.227"/>
    <circle cx="87" cy="212" r="3" fill="url(#node)" opacity="0.205"/>
    <circle cx="58" cy="252" r="3" fill="url(#nodeGold)" opacity="0.227"/>
    <circle cx="54" cy="325" r="3" fill="url(#node)" opacity="0.205"/>
    <circle cx="119" cy="58" r="3" fill="url(#nodeGold)" opacity="0.227"/>
    <circle cx="151" cy="151" r="3" fill="url(#node)" opacity="0.205"/>
    <circle cx="150" cy="190" r="3" fill="url(#node)" opacity="0.205"/>
    <circle cx="143" cy="261" r="3" fill="url(#node)" opacity="0.205"/>
    <circle cx="142" cy="332" r="3" fill="url(#nodeGold)" opacity="0.227"/>
    <circle cx="212" cy="87" r="3" fill="url(#node)" opacity="0.205"/>
    <circle cx="190" cy="150" r="3" fill="url(#node)" opacity="0.205"/>
    <circle cx="191" cy="191" r="3" fill="url(#nodeGold)" opacity="0.227"/>
    <circle cx="219" cy="245" r="3" fill="url(#nodeGold)" opacity="0.227"/>
    <circle cx="214" cy="347" r="3" fill="url(#node)" opacity="0.205"/>
    <circle cx="252" cy="58" r="3" fill="url(#node)" opacity="0.205"/>
    <circle cx="261" cy="143" r="3" fill="url(#nodeGold)" opacity="0.227"/>
    <circle cx="245" cy="219" r="3" fill="url(#node)" opacity="0.205"/>
    <circle cx="268" cy="268" r="3" fill="url(#node)" opacity="0.205"/>
    <circle cx="280" cy="328" r="3" fill="url(#node)" opacity="0.205"/>
    <circle cx="325" cy="54" r="3" fill="url(#nodeGold)" opacity="0.227"/>
    <circle cx="332" cy="142" r="3" fill="url(#node)" opacity="0.205"/>
    <circle cx="347" cy="214" r="3" fill="url(#node)" opacity="0.205"/>
    <circle cx="328" cy="280" r="3" fill="url(#node)" opacity="0.205"/>
    <circle cx="324" cy="324" r="3" fill="url(#node)" opacity="0.205"/>
    <circle cx="100" cy="0" r="3" fill="url(#nodeGold)" opacity="0.227"/>
    <circle cx="100" cy="400" r="3" fill="url(#nodeGold)" opacity="0.227"/>
    <circle cx="0" cy="100" r="3" fill="url(#node)" opacity="0.205"/>
    <circle cx="400" cy="100" r="3" fill="url(#node)" opacity="0.205"/>
    <circle cx="200" cy="0" r="3" fill="url(#nodeGold)" opacity="0.227"/>
    <circle cx="200" cy="400" r="3" fill="url(#node)" opacity="0.205"/>
    <circle cx="0" cy="200" r="3" fill="url(#node)" opacity="0.205"/>
    <circle cx="400" cy="200" r="3" fill="url(#node)" opacity="0.205"/>
    <circle cx="300" cy="0" r="3" fill="url(#node)" opacity="0.205"/>
    <circle cx="300" cy="400" r="3" fill="url(#node)" opacity="0.205"/>
    <circle cx="0" cy="300" r="3" fill="url(#node)" opacity="0.205"/>
    <circle cx="400" cy="300" r="3" fill="url(#node)" opacity="0.205"/>
    <circle cx="0" cy="0" r="3" fill="url(#nodeGold)" opacity="0.227"/>
    <circle cx="400" cy="0" r="3" fill="url(#nodeGold)" opacity="0.227"/>
    <circle cx="0" cy="400" r="3" fill="url(#node)" opacity="0.205"/>
    <circle cx="400" cy="400" r="3" fill="url(#nodeGold)" opacity="0.227"/>
    <circle cx="135" cy="125" r="3" fill="url(#node)" opacity="0.205"/>
    <circle cx="270" cy="125" r="3" fill="url(#nodeGold)" opacity="0.227"/>
    <circle cx="200" cy="300" r="3" fill="url(#node)" opacity="0.205"/>
  </g>
</svg>
